<svg width="512" height="512" viewBox="0 0 512 512" fill="none" xmlns="http://www.w3.org/2000/svg">
<path fill-rule="evenodd" clip-rule="evenodd" d="M107.524 411.966C50.0987 404.314 5.7998 355.143 5.7998 295.625C5.7998 230.801 58.3504 178.25 123.175 178.25C138.77 178.25 153.655 181.292 167.269 186.814C182.122 136.621 228.578 100 283.587 100C349.29 100 402.791 152.243 404.815 217.454C406.133 217.402 407.457 217.375 408.787 217.375C462.807 217.375 506.599 261.167 506.599 315.188C506.599 369.208 462.807 413 408.787 413C401.002 413 393.429 412.091 386.17 410.372C321.578 412.846 211.606 412.991 123.62 412.999C123.472 413 123.323 413 123.175 413C123.033 413 122.892 413 122.751 412.999C117.594 413 112.514 413 107.524 413V411.966Z" fill="white"/>
</svg>
