<svg width="512" height="512" viewBox="0 0 512 512" fill="none" xmlns="http://www.w3.org/2000/svg">
<path fill-rule="evenodd" clip-rule="evenodd" d="M137.556 448.055C85.0973 441.066 44.6296 396.148 44.6296 341.778C44.6296 282.56 92.6347 234.555 151.852 234.555C166.098 234.555 179.696 237.334 192.132 242.379C205.7 196.527 248.138 163.074 298.389 163.074C358.408 163.074 407.281 210.798 409.131 270.369C410.334 270.32 411.544 270.296 412.759 270.296C462.107 270.296 502.111 310.3 502.111 359.648C502.111 408.996 462.107 449 412.759 449C405.648 449 398.731 448.169 392.1 446.6C333.074 448.861 232.563 448.992 152.173 448.999C152.066 449 151.959 449 151.852 449C151.752 449 151.651 449 151.551 448.999C146.811 449 142.142 449 137.556 449V448.055Z" fill="#426C96"/>
<path d="M252 146.005C212.239 156.85 188.743 179.37 177.081 218.851C163.704 213.415 139.26 204.885 123.704 210.259C89.1937 215.633 55.3842 236.545 34.2988 264.001C18.4196 242.981 9 216.791 9 188.398C9 119.143 65.0391 63.0007 134.167 63.0007C188.443 63.0007 234.651 97.6113 252 146.005Z" fill="#426C96"/>
</svg>
