<svg width="512" height="512" viewBox="0 0 512 512" fill="none" xmlns="http://www.w3.org/2000/svg">
<path fill-rule="evenodd" clip-rule="evenodd" d="M121.812 288.097C69.9828 281.191 30 236.811 30 183.093C30 124.585 77.4298 77.1553 135.938 77.1553C150.013 77.1553 163.448 79.9004 175.735 84.8846C189.141 39.5829 231.07 6.53027 280.719 6.53027C340.019 6.53027 388.307 53.6823 390.134 112.539C391.323 112.492 392.518 112.468 393.719 112.468C442.475 112.468 482 151.993 482 200.749C482 249.505 442.475 289.03 393.719 289.03C386.693 289.03 379.859 288.21 373.307 286.659C314.988 288.893 215.681 289.022 136.254 289.03C136.149 289.03 136.043 289.03 135.938 289.03C135.838 289.03 135.739 289.03 135.64 289.03C130.957 289.03 126.344 289.03 121.812 289.03V288.097Z" fill="white"/>
<path d="M441 472.364C441 487.627 428.688 500 413.5 500C398.312 500 386 487.627 386 472.364C386 457.1 403.188 434.364 413.5 424C423.812 434.364 441 457.1 441 472.364Z" fill="white"/>
<path d="M441 472.364C441 487.627 428.688 500 413.5 500C398.312 500 386 487.627 386 472.364C386 457.1 403.188 434.364 413.5 424C423.812 434.364 441 457.1 441 472.364Z" fill="white"/>
<path d="M208 369.727C208 384.79 195.688 397 180.5 397C165.312 397 153 384.79 153 369.727C153 354.665 170.188 332.227 180.5 322C190.812 332.227 208 354.665 208 369.727Z" fill="white"/>
<path d="M208 369.727C208 384.79 195.688 397 180.5 397C165.312 397 153 384.79 153 369.727C153 354.665 170.188 332.227 180.5 322C190.812 332.227 208 354.665 208 369.727Z" fill="white"/>
<path d="M268.31 449.546C268.31 449.546 269.722 424 259.5 424C249.278 424 250.69 449.546 250.69 449.546C250.69 449.546 224.833 438.339 222.181 449.546C219.995 458.786 238.21 463.729 243.706 465C238.209 466.272 219.995 471.214 222.181 480.454C224.833 491.661 250.69 480.454 250.69 480.454C250.69 480.454 249.278 506 259.5 506C269.722 506 268.31 480.454 268.31 480.454C268.31 480.454 294.167 491.661 296.819 480.454C299.005 471.214 280.79 466.271 275.294 465C280.791 463.728 299.005 458.786 296.819 449.546C294.167 438.339 268.31 449.546 268.31 449.546Z" fill="white"/>
<path d="M336.927 347.546C336.927 347.546 338.358 322 328 322C317.641 322 319.073 347.546 319.073 347.546C319.073 347.546 292.87 336.339 290.184 347.546C287.968 356.786 306.426 361.729 311.995 363C306.425 364.272 287.969 369.214 290.184 378.454C292.871 389.661 319.073 378.454 319.073 378.454C319.073 378.454 317.642 404 328 404C338.359 404 336.927 378.454 336.927 378.454C336.927 378.454 363.13 389.661 365.816 378.454C368.032 369.214 349.574 364.271 344.005 363C349.575 361.728 368.031 356.786 365.816 347.546C363.129 336.339 336.927 347.546 336.927 347.546Z" fill="white"/>
<path d="M110.927 449.546C110.927 449.546 112.358 424 102 424C91.6413 424 93.0726 449.546 93.0726 449.546C93.0726 449.546 66.8703 438.339 64.1836 449.546C61.9682 458.786 80.4257 463.729 85.9952 465C80.4253 466.272 61.9685 471.214 64.1839 480.454C66.8706 491.661 93.0729 480.454 93.0729 480.454C93.0729 480.454 91.6416 506 102 506C112.359 506 110.927 480.454 110.927 480.454C110.927 480.454 137.13 491.661 139.816 480.454C142.032 471.214 123.574 466.271 118.005 465C123.575 463.728 142.031 458.786 139.816 449.546C137.129 438.339 110.927 449.546 110.927 449.546Z" fill="white"/>
</svg>
