<svg width="512" height="512" viewBox="0 0 512 512" fill="none" xmlns="http://www.w3.org/2000/svg">
<path fill-rule="evenodd" clip-rule="evenodd" d="M62.8754 280.326C31.9376 276.204 8.07129 249.713 8.07129 217.647C8.07129 182.723 36.3828 154.412 71.3068 154.412C79.7088 154.412 87.7281 156.051 95.0625 159.026C103.064 131.984 128.093 112.255 157.729 112.255C193.126 112.255 221.949 140.401 223.04 175.533C223.75 175.505 224.463 175.49 225.18 175.49C254.283 175.49 277.876 199.083 277.876 228.187C277.876 257.29 254.283 280.883 225.18 280.883C220.986 280.883 216.907 280.393 212.996 279.467C178.185 280.801 118.907 280.878 71.4959 280.883C71.4329 280.883 71.3699 280.883 71.3068 280.883C71.2477 280.883 71.1885 280.883 71.1294 280.883C68.3339 280.883 65.5801 280.883 62.8754 280.883V280.326Z" fill="white"/>
<path fill-rule="evenodd" clip-rule="evenodd" d="M447.643 458.054C479.417 453.82 503.929 426.613 503.929 393.681C503.929 357.814 474.852 328.737 438.984 328.737C430.355 328.737 422.119 330.42 414.586 333.475C406.368 305.703 380.664 285.44 350.227 285.44C313.873 285.44 284.27 314.347 283.15 350.429C282.421 350.4 281.688 350.385 280.952 350.385C251.062 350.385 226.832 374.616 226.832 404.506C226.832 434.395 251.062 458.626 280.952 458.626C285.259 458.626 289.449 458.123 293.466 457.172C329.218 458.542 390.098 458.621 438.79 458.626C438.855 458.626 438.919 458.626 438.984 458.626C439.045 458.626 439.106 458.626 439.166 458.626C442.037 458.626 444.866 458.626 447.643 458.626V458.054Z" fill="white"/>
<path d="M448.777 319.328C445.688 318.915 449.016 318.146 438.083 314.502C434.439 313.287 423.913 311.761 416.625 315.406C407.699 285.239 375.987 271.672 342.927 271.672C303.442 271.672 271.29 303.07 270.073 342.265C269.749 342.252 269.425 342.242 269.099 342.234C268.63 342.222 268.16 342.217 267.687 342.217C235.221 342.217 208.904 368.536 208.904 401.004C208.904 410.737 211.269 419.915 215.454 428C151.876 408.914 102.162 358.064 85 294.016H85.4075C132.387 294.01 191.128 293.927 225.623 292.478C228.353 293.186 231.168 293.66 234.047 293.879C235.253 293.969 236.47 294.016 237.696 294.016C264.211 294.016 286.114 272.36 289.468 244.309C293.492 236.632 295.768 227.895 295.768 218.625C295.768 188.025 270.963 163.22 240.366 163.22C239.613 163.22 238.864 163.234 238.118 163.265C236.97 126.327 206.669 96.7343 169.454 96.7343C159.716 96.7343 150.452 98.7594 142.059 102.415C176.241 71.7031 221.554 53 271.26 53C377.708 53 464 138.771 464 244.576C464 271.097 458.58 296.359 448.777 319.328Z" fill="white"/>
</svg>
