<svg width="512" height="512" viewBox="0 0 512 512" fill="none" xmlns="http://www.w3.org/2000/svg">
<path fill-rule="evenodd" clip-rule="evenodd" d="M54.6427 334.662C26.6186 330.928 5 306.932 5 277.887C5 246.252 30.6451 220.607 62.28 220.607C69.8907 220.607 77.1547 222.091 83.7984 224.786C91.0467 200.291 113.718 182.42 140.563 182.42C172.626 182.42 198.735 207.915 199.723 239.739C200.366 239.713 201.012 239.7 201.661 239.7C228.024 239.7 249.395 261.071 249.395 287.433C249.395 313.796 228.024 335.167 201.661 335.167C197.863 335.167 194.167 334.723 190.625 333.884C159.092 335.092 105.397 335.162 62.4513 335.166C62.3942 335.167 62.3371 335.167 62.28 335.167C62.2264 335.167 62.1729 335.167 62.1193 335.166C59.5871 335.167 57.0927 335.167 54.6427 335.167V334.662Z" fill="white"/>
<path fill-rule="evenodd" clip-rule="evenodd" d="M403.173 495.652C431.955 491.817 454.158 467.172 454.158 437.342C454.158 404.852 427.819 378.514 395.33 378.514C387.513 378.514 380.053 380.038 373.23 382.806C365.785 357.649 342.502 339.295 314.931 339.295C282.001 339.295 255.187 365.479 254.172 398.163C253.512 398.136 252.848 398.123 252.181 398.123C225.106 398.123 203.158 420.072 203.158 447.146C203.158 474.221 225.106 496.17 252.181 496.17C256.083 496.17 259.878 495.714 263.516 494.853C295.901 496.093 351.047 496.165 395.154 496.17C395.212 496.17 395.271 496.17 395.33 496.17C395.385 496.17 395.44 496.17 395.495 496.17C398.095 496.17 400.657 496.17 403.173 496.17V495.652Z" fill="white"/>
<path d="M404.223 370.471C401.427 370.096 404.439 369.399 394.545 366.095C391.247 364.994 381.721 363.61 375.125 366.915C367.047 339.563 338.347 327.262 308.428 327.262C272.693 327.262 243.595 355.73 242.493 391.267C242.2 391.255 241.907 391.246 241.612 391.239C241.187 391.228 240.762 391.223 240.334 391.223C210.952 391.223 187.135 415.086 187.135 444.524C187.135 453.348 189.275 461.67 193.062 469C135.523 451.696 90.5322 405.591 75 347.521H75.3688C117.886 347.516 171.047 347.44 202.266 346.127C204.736 346.769 207.284 347.198 209.889 347.397C210.981 347.479 212.083 347.521 213.192 347.521C237.189 347.521 257.011 327.887 260.047 302.454C263.688 295.493 265.747 287.571 265.747 279.167C265.747 251.423 243.299 228.933 215.608 228.933C214.927 228.933 214.249 228.946 213.574 228.973C212.535 195.483 185.112 168.652 151.432 168.652C142.619 168.652 134.235 170.489 126.639 173.803C157.574 145.957 198.583 129 243.567 129C339.904 129 418 206.766 418 302.696C418 326.741 413.095 349.646 404.223 370.471Z" fill="white"/>
<circle cx="84.5" cy="128.5" r="26.5" fill="white"/>
<circle cx="401.5" cy="128.5" r="26.5" fill="white"/>
<ellipse cx="256" cy="42.5" rx="26" ry="26.5" fill="white"/>
<ellipse cx="480.5" cy="274" rx="26.5" ry="26" fill="white"/>
</svg>
