<svg width="512" height="512" viewBox="0 0 512 512" fill="none" xmlns="http://www.w3.org/2000/svg">
<path fill-rule="evenodd" clip-rule="evenodd" d="M160.396 455.357C110.817 448.752 72.5713 406.299 72.5713 354.914C72.5713 298.948 117.941 253.578 173.907 253.578C187.372 253.578 200.223 256.204 211.976 260.972C224.8 217.638 264.908 186.021 312.4 186.021C369.125 186.021 415.315 231.124 417.063 287.425C418.2 287.38 419.343 287.357 420.492 287.357C467.131 287.357 504.939 325.165 504.939 371.803C504.939 418.442 467.131 456.25 420.492 456.25C413.771 456.25 407.234 455.465 400.967 453.982C345.181 456.118 250.187 456.242 174.21 456.25C174.109 456.25 174.008 456.25 173.907 456.25C173.813 456.25 173.718 456.25 173.623 456.25C169.143 456.25 164.73 456.25 160.396 456.25V455.357Z" fill="white"/>
<path d="M275 169.984C238.676 179.912 217.209 200.528 206.556 236.67C194.335 231.693 172.003 223.885 157.791 228.804C126.263 233.724 95.3757 252.867 76.1125 278.001C61.6055 258.759 53 234.784 53 208.792C53 145.395 104.196 94.0007 167.35 94.0007C216.936 94.0007 259.15 125.684 275 169.984Z" fill="white"/>
<circle cx="23.5" cy="182.5" r="16.5" fill="white"/>
<ellipse cx="279" cy="117.5" rx="16" ry="16.5" fill="white"/>
<circle cx="187.5" cy="71.5" r="16.5" fill="white"/>
<circle cx="36.5" cy="274.5" r="16.5" fill="white"/>
<circle cx="82.5" cy="97.5" r="16.5" fill="white"/>
</svg>
