<svg width="512" height="512" viewBox="0 0 512 512" fill="none" xmlns="http://www.w3.org/2000/svg">
<path fill-rule="evenodd" clip-rule="evenodd" d="M118.844 295.796C65.8674 288.738 25 243.376 25 188.469C25 128.667 73.4792 80.1875 133.281 80.1875C147.668 80.1875 161.4 82.9934 173.959 88.0878C187.661 41.7839 230.518 8 281.266 8C341.878 8 391.234 56.1952 393.101 116.354C394.317 116.306 395.538 116.281 396.766 116.281C446.601 116.281 487 156.681 487 206.516C487 256.351 446.601 296.75 396.766 296.75C389.584 296.75 382.599 295.911 375.902 294.326C316.293 296.609 214.789 296.742 133.605 296.75C133.497 296.75 133.389 296.75 133.281 296.75C133.18 296.75 133.079 296.75 132.978 296.75C128.191 296.75 123.475 296.75 118.844 296.75V295.796Z" fill="white"/>
<circle cx="102" cy="470" r="28" fill="white"/>
<circle cx="179" cy="379" r="28" fill="white"/>
<circle cx="340" cy="379" r="28" fill="white"/>
<circle cx="256" cy="477" r="28" fill="white"/>
<circle cx="417" cy="477" r="28" fill="white"/>
</svg>
