<svg width="512" height="512" viewBox="0 0 512 512" fill="none" xmlns="http://www.w3.org/2000/svg">
<path fill-rule="evenodd" clip-rule="evenodd" d="M119.438 293.88C66.6905 286.852 26 241.686 26 187.017C26 127.474 74.2693 79.2046 133.812 79.2046C148.137 79.2046 161.81 81.9983 174.314 87.0707C187.957 40.9673 230.629 7.32959 281.156 7.32959C341.506 7.32959 390.648 55.3162 392.508 115.215C393.718 115.166 394.934 115.142 396.156 115.142C445.776 115.142 486 155.366 486 204.986C486 254.605 445.776 294.83 396.156 294.83C389.006 294.83 382.051 293.994 375.383 292.416C316.032 294.689 214.968 294.821 134.135 294.829C134.027 294.829 133.92 294.83 133.812 294.83C133.712 294.83 133.611 294.829 133.51 294.829C128.744 294.83 124.049 294.83 119.438 294.83V293.88Z" fill="white"/>
<path d="M277 476C277 491.464 264.464 504 249 504C233.536 504 221 491.464 221 476C221 460.536 238.5 437.5 249 427C259.5 437.5 277 460.536 277 476Z" fill="white"/>
<path d="M277 476C277 491.464 264.464 504 249 504C233.536 504 221 491.464 221 476C221 460.536 238.5 437.5 249 427C259.5 437.5 277 460.536 277 476Z" fill="white"/>
<path d="M354 378.364C354 393.627 341.464 406 326 406C310.536 406 298 393.627 298 378.364C298 363.1 315.5 340.364 326 330C336.5 340.364 354 363.1 354 378.364Z" fill="white"/>
<path d="M354 378.364C354 393.627 341.464 406 326 406C310.536 406 298 393.627 298 378.364C298 363.1 315.5 340.364 326 330C336.5 340.364 354 363.1 354 378.364Z" fill="white"/>
<path d="M193 378.364C193 393.627 180.688 406 165.5 406C150.312 406 138 393.627 138 378.364C138 363.1 155.188 340.364 165.5 330C175.812 340.364 193 363.1 193 378.364Z" fill="white"/>
<path d="M193 378.364C193 393.627 180.688 406 165.5 406C150.312 406 138 393.627 138 378.364C138 363.1 155.188 340.364 165.5 330C175.812 340.364 193 363.1 193 378.364Z" fill="white"/>
<path d="M117 476C117 491.464 104.464 504 89 504C73.536 504 61 491.464 61 476C61 460.536 78.5 437.5 89 427C99.5 437.5 117 460.536 117 476Z" fill="white"/>
<path d="M117 476C117 491.464 104.464 504 89 504C73.536 504 61 491.464 61 476C61 460.536 78.5 437.5 89 427C99.5 437.5 117 460.536 117 476Z" fill="white"/>
<path d="M430 476C430 491.464 417.464 504 402 504C386.536 504 374 491.464 374 476C374 460.536 391.5 437.5 402 427C412.5 437.5 430 460.536 430 476Z" fill="white"/>
<path d="M430 476C430 491.464 417.464 504 402 504C386.536 504 374 491.464 374 476C374 460.536 391.5 437.5 402 427C412.5 437.5 430 460.536 430 476Z" fill="white"/>
</svg>
