<svg width="512" height="512" viewBox="0 0 512 512" fill="none" xmlns="http://www.w3.org/2000/svg">
<path fill-rule="evenodd" clip-rule="evenodd" d="M124.188 283.674C73.2751 276.891 34 233.296 34 180.528C34 123.056 80.5904 76.4658 138.062 76.4658C151.889 76.4658 165.086 79.1624 177.156 84.0583C190.324 39.5585 231.511 7.09082 280.281 7.09082C338.532 7.09082 385.965 53.4083 387.76 111.224C388.928 111.177 390.102 111.153 391.281 111.153C439.175 111.153 478 149.979 478 197.872C478 245.766 439.175 284.591 391.281 284.591C384.38 284.591 377.666 283.785 371.231 282.261C313.944 284.456 216.395 284.583 138.374 284.59C138.27 284.591 138.166 284.591 138.062 284.591C137.965 284.591 137.868 284.591 137.771 284.59C133.17 284.591 128.638 284.591 124.188 284.591V283.674Z" fill="#426C96"/>
<path d="M113.692 449.234C113.692 449.234 115.086 424 105 424C94.9139 424 96.3076 449.234 96.3076 449.234C96.3076 449.234 70.7948 438.164 68.1788 449.234C66.0217 458.362 83.9934 463.244 89.4164 464.5C83.9931 465.756 66.022 470.638 68.1791 479.766C70.7951 490.836 96.3079 479.766 96.3079 479.766C96.3079 479.766 94.9142 505 105 505C115.086 505 113.692 479.766 113.692 479.766C113.692 479.766 139.205 490.836 141.821 479.766C143.978 470.638 126.007 465.756 120.584 464.5C126.007 463.244 143.978 458.362 141.821 449.234C139.205 438.164 113.692 449.234 113.692 449.234Z" fill="#426C96"/>
<path d="M341.692 348.234C341.692 348.234 343.086 323 333 323C322.914 323 324.308 348.234 324.308 348.234C324.308 348.234 298.795 337.164 296.179 348.234C294.022 357.362 311.993 362.244 317.416 363.5C311.993 364.756 294.022 369.638 296.179 378.766C298.795 389.836 324.308 378.766 324.308 378.766C324.308 378.766 322.914 404 333 404C343.086 404 341.692 378.766 341.692 378.766C341.692 378.766 367.205 389.836 369.821 378.766C371.978 369.638 354.007 364.756 348.584 363.5C354.007 362.244 371.978 357.362 369.821 348.234C367.205 337.164 341.692 348.234 341.692 348.234Z" fill="#426C96"/>
<path d="M267.692 449.234C267.692 449.234 269.086 424 259 424C248.914 424 250.308 449.234 250.308 449.234C250.308 449.234 224.795 438.164 222.179 449.234C220.022 458.362 237.993 463.244 243.416 464.5C237.993 465.756 220.022 470.638 222.179 479.766C224.795 490.836 250.308 479.766 250.308 479.766C250.308 479.766 248.914 505 259 505C269.086 505 267.692 479.766 267.692 479.766C267.692 479.766 293.205 490.836 295.821 479.766C297.978 470.638 280.007 465.756 274.584 464.5C280.007 463.244 297.978 458.362 295.821 449.234C293.205 438.164 267.692 449.234 267.692 449.234Z" fill="#426C96"/>
<path d="M415.692 449.234C415.692 449.234 417.086 424 407 424C396.914 424 398.308 449.234 398.308 449.234C398.308 449.234 372.795 438.164 370.179 449.234C368.022 458.362 385.993 463.244 391.416 464.5C385.993 465.756 368.022 470.638 370.179 479.766C372.795 490.836 398.308 479.766 398.308 479.766C398.308 479.766 396.914 505 407 505C417.086 505 415.692 479.766 415.692 479.766C415.692 479.766 441.205 490.836 443.821 479.766C445.978 470.638 428.007 465.756 422.584 464.5C428.007 463.244 445.978 458.362 443.821 449.234C441.205 438.164 415.692 449.234 415.692 449.234Z" fill="#426C96"/>
<path d="M187.692 348.234C187.692 348.234 189.086 323 179 323C168.914 323 170.308 348.234 170.308 348.234C170.308 348.234 144.795 337.164 142.179 348.234C140.022 357.362 157.993 362.244 163.416 363.5C157.993 364.756 140.022 369.638 142.179 378.766C144.795 389.836 170.308 378.766 170.308 378.766C170.308 378.766 168.914 404 179 404C189.086 404 187.692 378.766 187.692 378.766C187.692 378.766 213.205 389.836 215.821 378.766C217.978 369.638 200.007 364.756 194.584 363.5C200.007 362.244 217.978 357.362 215.821 348.234C213.205 337.164 187.692 348.234 187.692 348.234Z" fill="#426C96"/>
</svg>
