<svg width="512" height="512" viewBox="0 0 512 512" fill="none" xmlns="http://www.w3.org/2000/svg">
<path d="M256 412C342.156 412 412 342.156 412 256C412 169.844 342.156 100 256 100C169.844 100 100 169.844 100 256C100 342.156 169.844 412 256 412Z" fill="#426C96"/>
<path d="M100 438C114.359 438 126 426.359 126 412C126 397.641 114.359 386 100 386C85.6406 386 74 397.641 74 412C74 426.359 85.6406 438 100 438Z" fill="#426C96"/>
<path d="M412 438C426.359 438 438 426.359 438 412C438 397.641 426.359 386 412 386C397.641 386 386 397.641 386 412C386 426.359 397.641 438 412 438Z" fill="#426C96"/>
<path d="M256 61C270.359 61 282 49.3594 282 35C282 20.6406 270.359 9 256 9C241.641 9 230 20.6406 230 35C230 49.3594 241.641 61 256 61Z" fill="#426C96"/>
<path d="M100 126C114.359 126 126 114.359 126 100C126 85.6406 114.359 74 100 74C85.6406 74 74 85.6406 74 100C74 114.359 85.6406 126 100 126Z" fill="#426C96"/>
<path d="M412 126C426.359 126 438 114.359 438 100C438 85.6406 426.359 74 412 74C397.641 74 386 85.6406 386 100C386 114.359 397.641 126 412 126Z" fill="#426C96"/>
<path d="M256 503C270.359 503 282 491.359 282 477C282 462.641 270.359 451 256 451C241.641 451 230 462.641 230 477C230 491.359 241.641 503 256 503Z" fill="#426C96"/>
<path d="M477 282C491.359 282 503 270.359 503 256C503 241.641 491.359 230 477 230C462.641 230 451 241.641 451 256C451 270.359 462.641 282 477 282Z" fill="#426C96"/>
<path d="M35 282C49.3594 282 61 270.359 61 256C61 241.641 49.3594 230 35 230C20.6406 230 9 241.641 9 256C9 270.359 20.6406 282 35 282Z" fill="#426C96"/>
</svg>
