<svg width="512" height="512" viewBox="0 0 512 512" fill="none" xmlns="http://www.w3.org/2000/svg">
<path fill-rule="evenodd" clip-rule="evenodd" d="M32 181.295C32 234.538 71.629 278.526 123 285.37V286.295C127.491 286.295 132.064 286.295 136.705 286.295C136.804 286.295 136.902 286.295 137 286.295C137.105 286.295 137.209 286.295 137.314 286.295C178.075 286.291 224.117 286.255 267.069 285.913L266.182 294.78L198.303 379.629H262.788L184.727 505.204L340.849 349.083H272.97L303.363 285.534C329.344 285.187 353.052 284.681 372.269 283.945C378.763 285.482 385.536 286.295 392.5 286.295C440.825 286.295 480 247.12 480 198.795C480 150.47 440.825 111.295 392.5 111.295C391.31 111.295 390.125 111.319 388.947 111.366C387.136 53.0302 339.276 6.29541 280.5 6.29541C231.29 6.29541 189.732 39.0556 176.445 83.9563C164.267 79.0163 150.951 76.2954 137 76.2954C79.0101 76.2954 32 123.306 32 181.295Z" fill="white"/>
<path d="M432 366.091C432 380.952 419.912 393 405 393C390.088 393 378 380.952 378 366.091C378 351.229 394.875 329.091 405 319C415.125 329.091 432 351.229 432 366.091Z" fill="white"/>
<path d="M432 366.091C432 380.952 419.912 393 405 393C390.088 393 378 380.952 378 366.091C378 351.229 394.875 329.091 405 319C415.125 329.091 432 351.229 432 366.091Z" fill="white"/>
<path d="M351 467.727C351 482.79 338.912 495 324 495C309.088 495 297 482.79 297 467.727C297 452.665 313.875 430.227 324 420C334.125 430.227 351 452.665 351 467.727Z" fill="white"/>
<path d="M351 467.727C351 482.79 338.912 495 324 495C309.088 495 297 482.79 297 467.727C297 452.665 313.875 430.227 324 420C334.125 430.227 351 452.665 351 467.727Z" fill="white"/>
<path d="M107 467.727C107 482.79 94.6878 495 79.5 495C64.3122 495 52 482.79 52 467.727C52 452.665 69.1875 430.227 79.5 420C89.8125 430.227 107 452.665 107 467.727Z" fill="white"/>
<path d="M107 467.727C107 482.79 94.6878 495 79.5 495C64.3122 495 52 482.79 52 467.727C52 452.665 69.1875 430.227 79.5 420C89.8125 430.227 107 452.665 107 467.727Z" fill="white"/>
<path d="M181 366.091C181 380.952 168.912 393 154 393C139.088 393 127 380.952 127 366.091C127 351.229 143.875 329.091 154 319C164.125 329.091 181 351.229 181 366.091Z" fill="white"/>
<path d="M181 366.091C181 380.952 168.912 393 154 393C139.088 393 127 380.952 127 366.091C127 351.229 143.875 329.091 154 319C164.125 329.091 181 351.229 181 366.091Z" fill="white"/>
</svg>
