<svg width="256" height="256" viewBox="0 0 256 256" fill="none" xmlns="http://www.w3.org/2000/svg">
<path d="M110.682 66.601C103.847 69.5219 97.8155 73.3719 92.6566 78.3588C87.2285 83.606 83.035 89.8517 79.8665 97.0406C78.1211 96.5166 76.2899 96.0274 74.4232 95.6177C69.2714 94.487 62.4482 93.6295 56.1758 95.5074C40.8192 98.0639 25.9547 105.769 14.4609 116.35C11.2757 109.455 9.5 101.777 9.5 93.6732C9.5 63.7596 33.7659 39.5 63.7115 39.5C83.7748 39.5 101.306 50.3943 110.682 66.601ZM72.5595 216.5C71.5918 216.5 70.6298 216.5 69.6741 216.5L66.6881 216.103C44.6271 213.171 27.6359 194.319 27.6359 171.555C27.6359 146.755 47.796 126.611 72.7135 126.611C78.7235 126.611 84.4362 127.779 89.6531 129.89L99.3495 133.813L102.324 123.785C108.063 104.438 126.031 90.3145 147.303 90.3145C172.727 90.3145 193.395 110.477 194.176 135.591L194.475 145.17L204.05 144.788C204.537 144.769 205.026 144.759 205.519 144.759C225.413 144.759 241.5 160.841 241.5 180.63C241.5 200.418 225.413 216.5 205.519 216.5C202.639 216.5 199.851 216.165 197.186 215.535L195.93 215.239L194.64 215.288C164.818 216.428 113.869 216.496 72.8758 216.5H72.8627L72.8496 216.5L72.7135 216.5L72.5863 216.5L72.5729 216.5H72.5595Z" stroke="url(#paint0_linear_15_2)" stroke-width="19"/>
<defs>
<linearGradient id="paint0_linear_15_2" x1="207.677" y1="205.689" x2="32.7265" y2="39.7291" gradientUnits="userSpaceOnUse">
<stop stop-color="#B721FF"/>
<stop offset="1" stop-color="#21D4FD"/>
</linearGradient>
</defs>
</svg>
