<svg width="112" height="112" viewBox="0 0 112 112" fill="none" xmlns="http://www.w3.org/2000/svg">
<path fill-rule="evenodd" clip-rule="evenodd" d="M87.0216 63.8C91.7578 56.5078 96 49.9763 96 40.8972C96 18.8626 78.0914 1 56.0002 1C33.9086 1 16 18.8626 16 40.8972C16 52.6399 22.4516 61.4079 29.1808 70.4988C32.3435 76.2803 40.2218 85.6035 46.9591 93.5764C50.6253 97.9158 53.9539 101.854 56.0002 104.605C58.3147 101.105 62.9705 95.5506 67.8401 89.7417C73.8289 82.5975 80.1408 75.0674 82.8195 70.4988C84.1995 68.1443 85.6319 65.9396 87.0216 63.8ZM81.4003 36.814C81.4003 37.8163 81.1098 38.7913 80.5838 39.665C80.3907 39.8236 80.2545 40.0297 80.1809 40.2552C78.8447 41.9952 76.5129 43.2093 73.7062 43.2093C70.7689 43.2093 68.2853 41.8447 66.9935 39.9354C66.362 39.0024 66.012 37.9381 66.012 36.814C66.012 36.1076 65.4378 35.5349 64.7297 35.5349C64.0215 35.5349 63.4473 36.1076 63.4473 36.814C63.4473 38.1174 63.766 39.3515 64.3314 40.4594L62.5259 42.3193C62.0334 42.8271 62.0466 43.6371 62.5553 44.128C63.0641 44.6195 63.8759 44.6064 64.3687 44.0993L65.848 42.5754C66.3204 43.0663 66.8507 43.5097 67.4287 43.9001L64.9451 47.6161C64.5521 48.2038 64.7115 48.9982 65.3007 49.3898C65.8899 49.7814 66.6861 49.6228 67.079 49.0351L69.6437 45.1979C69.6722 45.1554 69.6975 45.1117 69.7201 45.0673C70.5723 45.3808 71.4802 45.5951 72.4238 45.6981V49.6047C72.4238 50.311 72.998 50.8837 73.7062 50.8837C74.4144 50.8837 74.9885 50.311 74.9885 49.6047V45.6969C76.0248 45.5826 77.0229 45.3315 77.953 44.9618L78.8738 48.636C78.9806 49.0613 79.2889 49.3829 79.6718 49.5253C79.906 49.6121 80.1681 49.6315 80.4289 49.5666C81.1161 49.3954 81.5337 48.7009 81.3621 48.0152L80.2779 43.6902C80.6452 43.4248 80.9914 43.1362 81.3139 42.8277L82.8981 45.1979C83.291 45.7856 84.0871 45.9442 84.6764 45.5526C85.2656 45.161 85.4249 44.3666 85.032 43.7789L82.9673 40.6893C83.6041 39.5301 83.965 38.2211 83.965 36.814C83.965 36.1076 83.3909 35.5349 82.6827 35.5349C81.9745 35.5349 81.4003 36.1076 81.4003 36.814ZM37.8001 43.2093C42.242 43.2093 45.4943 40.1684 45.4943 36.814C45.4943 36.1076 46.0684 35.5349 46.7766 35.5349C47.4848 35.5349 48.059 36.1076 48.059 36.814C48.059 38.3803 47.6116 39.8261 46.8336 41.0784C46.9623 41.1314 47.0847 41.2064 47.1949 41.3038L49.3413 43.1999C49.8714 43.6683 49.9205 44.4765 49.4509 45.0055C48.9816 45.5345 48.1711 45.5832 47.6407 45.1148L45.4943 43.2187C45.4057 43.1406 45.3305 43.0525 45.2689 42.9582C44.9213 43.278 44.5478 43.5747 44.1515 43.8457C43.7893 44.0937 43.4082 44.3204 43.0109 44.5246L44.1462 47.9209C44.37 48.591 44.0068 49.3155 43.335 49.5391C42.6631 49.7627 41.9371 49.4004 41.7129 48.7303L40.6081 45.4239C39.7086 45.6482 38.765 45.7674 37.8001 45.7674C37.3678 45.7674 36.9395 45.7437 36.5177 45.6969V48.3256C36.5177 49.0319 35.9436 49.6047 35.2354 49.6047C34.5272 49.6047 33.953 49.0319 33.953 48.3256V45.1123C33.3588 44.9018 32.79 44.6445 32.253 44.3441L31.2531 46.3395C30.9362 46.9716 30.1661 47.2276 29.5324 46.9116C28.899 46.5956 28.6423 45.8274 28.9588 45.1954L30.1611 42.7977C29.5972 42.2525 29.1079 41.6454 28.7096 40.9853L25.6878 42.9945C25.0986 43.386 24.3025 43.2274 23.9096 42.6397C23.5166 42.052 23.676 41.2576 24.2652 40.866L27.7325 38.5602C27.6073 37.9987 27.5412 37.4154 27.5412 36.814C27.5412 36.1076 28.1154 35.5349 28.8236 35.5349C29.5318 35.5349 30.106 36.1076 30.106 36.814C30.106 40.1684 33.3582 43.2093 37.8001 43.2093ZM46.9037 68.2361C46.7641 68.5253 46.7325 68.8669 46.8424 69.1954C47.0662 69.8649 47.7929 70.2271 48.4644 70.0042L48.4697 70.0023L48.4967 69.9936L48.6128 69.9574C48.7168 69.9249 48.8724 69.8774 49.0724 69.8206C49.4731 69.7063 50.0492 69.5533 50.7417 69.3996C52.1359 69.0905 53.9589 68.7907 55.7531 68.7907C57.5474 68.7907 59.3704 69.0905 60.7645 69.3996C61.4571 69.5533 62.0331 69.7063 62.4339 69.8206C62.6339 69.8774 62.7895 69.9249 62.8935 69.9574L63.0096 69.9936L63.0365 70.0023L63.0425 70.0042C63.714 70.2271 64.4401 69.8649 64.6639 69.1954C64.8878 68.5253 64.5227 67.8002 63.8505 67.5766L63.822 67.6628C63.8499 67.576 63.8471 67.5753 63.8471 67.5753L63.8358 67.5716L63.6555 67.5141C63.534 67.4767 63.359 67.4242 63.1383 67.3611C62.6975 67.2356 62.0713 67.0688 61.3212 66.9027C59.83 66.5723 57.806 66.2326 55.7531 66.2326C53.7003 66.2326 51.6763 66.5723 50.1851 66.9027C49.435 67.0688 48.8088 67.2356 48.368 67.3611C48.1473 67.4242 47.9723 67.4767 47.8508 67.5141L47.6705 67.5716L47.6536 67.5772C47.311 67.6909 47.049 67.9351 46.9037 68.2361ZM77.5532 62.3953C78.9696 62.3953 80.118 61.1456 80.118 59.6049C80.118 58.0635 78.515 55.7677 77.5532 54.7209C76.5915 55.7677 74.9885 58.0635 74.9885 59.6049C74.9885 61.1456 76.1369 62.3953 77.5532 62.3953ZM74.9885 67.2793C74.9885 68.8201 73.8402 70.0698 72.4238 70.0698C71.0075 70.0698 69.8591 68.8201 69.8591 67.2793C69.8591 65.7379 71.462 63.4421 72.4238 62.3953C73.3856 63.4421 74.9885 65.7379 74.9885 67.2793Z" fill="#426C96"/>
<path fill-rule="evenodd" clip-rule="evenodd" d="M28.8236 102.047C28.8236 98.7133 34.041 95.8054 41.7806 94.264C42.68 95.3177 43.5723 96.3606 44.4492 97.3849L45.6577 98.7976C42.7023 99.2104 40.1115 99.8175 38.0299 100.544C36.5475 101.062 35.4733 101.588 34.7489 102.047C35.4733 102.504 36.5475 103.031 38.0299 103.549C41.9956 104.933 47.8079 105.884 54.4708 105.884C61.1337 105.884 66.9459 104.933 70.9117 103.549C72.3941 103.031 73.4682 102.504 74.1927 102.047C73.4682 101.588 72.3941 101.062 70.9117 100.544C69.2718 99.9718 67.3163 99.474 65.1157 99.0862C66.327 97.641 67.5874 96.1508 68.8713 94.6363C75.6595 96.2476 80.118 98.965 80.118 102.047C80.118 106.992 68.6353 111 54.4708 111C40.3063 111 28.8236 106.992 28.8236 102.047ZM33.7758 101.273C33.7646 101.255 33.7567 101.246 33.7567 101.246L33.7617 101.255L33.7758 101.273Z" fill="#426C96"/>
</svg>
