<svg width="329" height="329" viewBox="0 0 329 329" fill="none" xmlns="http://www.w3.org/2000/svg">
<path fill-rule="evenodd" clip-rule="evenodd" d="M3 189.266C3 227.415 31.3945 258.933 68.2024 263.837V264.5C71.401 264.5 74.6573 264.5 77.9628 264.5C78.0533 264.5 78.1439 264.5 78.2345 264.5C78.3297 264.5 78.4249 264.5 78.5201 264.5C134.917 264.494 205.406 264.402 246.808 262.816C251.461 263.917 256.315 264.5 261.305 264.5C295.93 264.5 324 236.431 324 201.805C324 167.179 295.93 139.109 261.305 139.109C260.452 139.109 259.603 139.126 258.759 139.16C257.461 97.3613 223.169 63.875 181.055 63.875C145.795 63.875 116.018 87.3483 106.498 119.521C97.7717 115.981 88.2307 114.031 78.2345 114.031C36.6836 114.031 3 147.715 3 189.266ZM216.222 158.268C217.061 156.866 217.524 155.302 217.524 153.694C217.524 152.561 218.439 151.642 219.568 151.642C220.698 151.642 221.613 152.561 221.613 153.694C221.613 155.951 221.037 158.051 220.022 159.911L223.314 164.867C223.941 165.809 223.687 167.084 222.747 167.712C221.808 168.34 220.538 168.086 219.912 167.143L217.386 163.341C216.872 163.836 216.32 164.299 215.734 164.724L217.463 171.662C217.736 172.762 217.071 173.876 215.975 174.151C215.559 174.255 215.141 174.224 214.768 174.085C214.157 173.856 213.666 173.34 213.495 172.658L212.027 166.764C210.544 167.357 208.953 167.76 207.301 167.943V174.212C207.301 175.345 206.385 176.264 205.256 176.264C204.127 176.264 203.211 175.345 203.211 174.212V167.945C201.707 167.78 200.259 167.436 198.901 166.934C198.865 167.005 198.824 167.075 198.779 167.143L194.689 173.298C194.063 174.241 192.794 174.495 191.854 173.867C190.915 173.239 190.661 171.965 191.287 171.022L195.247 165.061C194.326 164.435 193.48 163.724 192.727 162.936L190.368 165.381C189.582 166.194 188.288 166.215 187.477 165.427C186.666 164.639 186.645 163.34 187.43 162.525L190.309 159.542C189.407 157.765 188.899 155.785 188.899 153.694C188.899 152.561 189.814 151.642 190.944 151.642C192.073 151.642 192.988 152.561 192.988 153.694C192.988 155.497 193.546 157.205 194.553 158.701C196.613 161.764 200.573 163.953 205.256 163.953C209.731 163.953 213.449 162.005 215.579 159.214C215.697 158.853 215.914 158.522 216.222 158.268ZM160.274 153.694C160.274 159.075 155.089 163.953 148.006 163.953C140.924 163.953 135.739 159.075 135.739 153.694C135.739 152.561 134.823 151.642 133.694 151.642C132.565 151.642 131.649 152.561 131.649 153.694C131.649 154.659 131.755 155.595 131.954 156.495L126.426 160.194C125.487 160.822 125.233 162.097 125.859 163.039C126.485 163.982 127.755 164.237 128.694 163.608L133.512 160.385C134.147 161.444 134.928 162.418 135.827 163.293L133.91 167.139C133.405 168.153 133.814 169.385 134.824 169.892C135.835 170.399 137.063 169.988 137.568 168.974L139.162 165.773C140.018 166.255 140.925 166.668 141.873 167.006V172.16C141.873 173.293 142.788 174.212 143.917 174.212C145.046 174.212 145.962 173.293 145.962 172.16V167.943C146.634 168.019 147.317 168.057 148.006 168.057C149.545 168.057 151.049 167.865 152.484 167.506L154.245 172.809C154.603 173.884 155.76 174.465 156.831 174.107C157.903 173.748 158.482 172.586 158.125 171.511L156.315 166.063C156.948 165.735 157.556 165.372 158.133 164.974C158.765 164.539 159.361 164.063 159.915 163.55C160.013 163.702 160.133 163.843 160.274 163.968L163.697 167.01C164.542 167.761 165.835 167.683 166.583 166.834C167.332 165.986 167.253 164.689 166.408 163.938L162.986 160.896C162.81 160.74 162.615 160.62 162.41 160.535C163.65 158.526 164.363 156.207 164.363 153.694C164.363 152.561 163.448 151.642 162.319 151.642C161.19 151.642 160.274 152.561 160.274 153.694ZM162.424 205.638C162.248 205.111 162.299 204.563 162.522 204.099C162.753 203.616 163.171 203.224 163.717 203.042L163.744 203.033L164.032 202.941C164.225 202.881 164.504 202.797 164.856 202.695C165.559 202.494 166.557 202.226 167.753 201.96C170.131 201.43 173.358 200.885 176.631 200.885C179.904 200.885 183.132 201.43 185.509 201.96C186.705 202.226 187.703 202.494 188.406 202.695C188.758 202.797 189.037 202.881 189.231 202.941L189.518 203.033L189.536 203.039C189.536 203.039 189.541 203.04 189.497 203.179L189.542 203.041C190.614 203.4 191.196 204.563 190.839 205.638C190.482 206.712 189.324 207.293 188.254 206.935L188.244 206.932L188.201 206.918L188.016 206.86C187.85 206.808 187.602 206.732 187.283 206.641C186.644 206.457 185.726 206.212 184.622 205.965C182.399 205.469 179.492 204.989 176.631 204.989C173.77 204.989 170.864 205.469 168.641 205.965C167.537 206.212 166.618 206.457 165.979 206.641C165.66 206.732 165.412 206.808 165.247 206.86L165.061 206.918L165.018 206.932L165.01 206.935C163.939 207.293 162.781 206.712 162.424 205.638ZM215.479 190.253C215.479 192.725 213.648 194.73 211.39 194.73C209.132 194.73 207.301 192.725 207.301 190.253C207.301 187.781 209.856 184.098 211.39 182.419C212.923 184.098 215.479 187.781 215.479 190.253ZM203.211 207.04C205.47 207.04 207.301 205.036 207.301 202.564C207.301 200.092 204.745 196.409 203.211 194.73C201.678 196.409 199.122 200.092 199.122 202.564C199.122 205.036 200.953 207.04 203.211 207.04Z" fill="#426C96"/>
</svg>
